<svg width="360" height="360" viewBox="0 0 360 360" fill="none" xmlns="http://www.w3.org/2000/svg">
  <g opacity="0.72" stroke-linecap="round" stroke-linejoin="round">
    <path d="M44 54h36c6.6 0 12 5.4 12 12v16c0 6.6-5.4 12-12 12H62l-14 11 4-11H44c-6.6 0-12-5.4-12-12V66c0-6.6 5.4-12 12-12Z" stroke="#7FB3FF" stroke-width="2"/>
    <path d="m138 70 18 18 24-30" stroke="#8BCB88" stroke-width="2"/>
    <path d="M220 54c14 0 24 10 24 22 0 8-4 14-11 18l2 11-11-8h-4c-14 0-24-10-24-21 0-12 10-22 24-22Z" stroke="#C69CF1" stroke-width="2"/>
    <path d="M290 50c10 0 18 7 18 16 0 7-5 12-11 14l2 9-9-6h-2c-10 0-18-7-18-17s8-16 20-16Z" stroke="#FFA97A" stroke-width="2"/>

    <path d="M54 146 82 130l-8 28-20-12Z" stroke="#79B0FF" stroke-width="2"/>
    <path d="M136 132c8 0 14 6 14 13 0 5-3 9-8 11l1 7-7-4h-1c-8 0-14-6-14-14s6-13 15-13Z" stroke="#F08BB5" stroke-width="2"/>
    <path d="m210 126 7 14 16 2-12 10 4 15-15-8-14 8 3-15-11-10 15-2 7-14Z" stroke="#F2B357" stroke-width="2"/>
    <path d="M286 130h30c7 0 12 5 12 12v10c0 7-5 12-12 12h-17l-10 8 3-8h-6c-7 0-12-5-12-12v-10c0-7 5-12 12-12Z" stroke="#8DCC8A" stroke-width="2"/>

    <path d="M36 228h34c6 0 11 5 11 11v10c0 6-5 11-11 11H56l-10 8 3-8h-13c-6 0-11-5-11-11v-10c0-6 5-11 11-11Z" stroke="#C79FF4" stroke-width="2"/>
    <path d="M126 224c8 0 15 6 15 14s-7 14-15 14-15-6-15-14 7-14 15-14Z" stroke="#7EC6B2" stroke-width="2"/>
    <path d="M198 228c0-8 7-14 16-14s16 6 16 14v6h6v17h-44v-17h6v-6Z" stroke="#82B8FF" stroke-width="2"/>
    <path d="M286 218c12 0 21 8 21 18 0 7-5 13-12 16l2 10-10-7h-1c-12 0-21-8-21-19s9-18 21-18Z" stroke="#F39EB2" stroke-width="2"/>

    <path d="m74 302 7 13 14 2-10 9 3 13-12-6-12 6 3-13-10-9 14-2 7-13Z" stroke="#F3B04A" stroke-width="2"/>
    <path d="M150 300c10 0 18 7 18 16 0 6-4 11-10 14l2 8-9-6h-1c-10 0-18-7-18-16 0-10 8-16 18-16Z" stroke="#90C8FF" stroke-width="2"/>
    <path d="M232 298h32c6 0 10 4 10 9v7c0 5-4 9-10 9h-13l-8 7 2-7h-13c-6 0-10-4-10-9v-7c0-5 4-9 10-9Z" stroke="#9BD694" stroke-width="2"/>
    <path d="M304 300a15 15 0 1 1 0 30 15 15 0 0 1 0-30Z" stroke="#BFA8FF" stroke-width="2"/>
  </g>

  <g opacity="0.45" fill="#AEB6C2">
    <circle cx="24" cy="20" r="1.6"/>
    <circle cx="96" cy="28" r="1.3"/>
    <circle cx="184" cy="20" r="1.4"/>
    <circle cx="258" cy="26" r="1.2"/>
    <circle cx="334" cy="18" r="1.5"/>
    <circle cx="20" cy="110" r="1.5"/>
    <circle cx="110" cy="102" r="1.2"/>
    <circle cx="184" cy="116" r="1.7"/>
    <circle cx="270" cy="102" r="1.3"/>
    <circle cx="342" cy="114" r="1.6"/>
    <circle cx="30" cy="190" r="1.2"/>
    <circle cx="98" cy="184" r="1.6"/>
    <circle cx="170" cy="196" r="1.3"/>
    <circle cx="246" cy="184" r="1.5"/>
    <circle cx="322" cy="194" r="1.2"/>
    <circle cx="24" cy="274" r="1.4"/>
    <circle cx="110" cy="268" r="1.2"/>
    <circle cx="182" cy="278" r="1.6"/>
    <circle cx="258" cy="268" r="1.2"/>
    <circle cx="334" cy="276" r="1.5"/>
    <circle cx="34" cy="344" r="1.5"/>
    <circle cx="120" cy="338" r="1.2"/>
    <circle cx="194" cy="346" r="1.3"/>
    <circle cx="268" cy="340" r="1.4"/>
    <circle cx="340" cy="348" r="1.2"/>
  </g>
</svg>
